<svg width="50" height="106" viewBox="0 0 50 106" fill="none" xmlns="http://www.w3.org/2000/svg">
<path d="M33.632 96.504C33.12 96.504 32.832 96.168 32.768 95.496C33.76 89.384 34.608 84.856 35.312 81.912C36.048 79 37.008 75.624 38.192 71.784C35.28 74.408 31.472 75.72 26.768 75.72C24.464 75.72 22.496 75.048 20.864 73.704C19.264 72.36 18.048 70.616 17.216 68.472C16.384 66.328 15.968 64.04 15.968 61.608C15.968 57 16.912 52.136 18.8 47.016C20.72 41.896 23.152 37.624 26.096 34.2C29.072 30.776 32.032 29.064 34.976 29.064C37.632 29.064 39.76 29.864 41.36 31.464C42.992 33.032 44.048 35.224 44.528 38.04C44.4 39 44.144 39.48 43.76 39.48C43.44 39.48 43.04 39.128 42.56 38.424C42.112 37.72 41.664 36.856 41.216 35.832C39.968 32.824 37.888 31.32 34.976 31.32C32.096 31.32 29.36 32.968 26.768 36.264C24.176 39.528 22.096 43.496 20.528 48.168C18.96 52.808 18.176 56.952 18.176 60.6C18.176 64.408 18.88 67.528 20.288 69.96C21.696 72.36 23.968 73.56 27.104 73.56C32.64 73.56 36.416 72.024 38.432 68.952C38.944 68.184 39.296 67.464 39.488 66.792C39.68 66.12 39.776 65.416 39.776 64.68C39.616 64.232 38.848 63.304 37.472 61.896C36.096 60.488 34.816 59.368 33.632 58.536C31.584 58.952 29.248 59.336 26.624 59.688C25.984 59.624 25.664 59.336 25.664 58.824C25.664 58.408 25.856 58.04 26.24 57.72C28.32 56.216 30.128 55.464 31.664 55.464C32.592 55.464 33.488 55.704 34.352 56.184C38.256 55.32 42.608 54.12 47.408 52.584C48.176 52.584 48.56 52.856 48.56 53.4C48.56 53.592 48.496 53.832 48.368 54.12C44.24 60.936 41.136 68.28 39.056 76.152C38.384 78.648 37.856 80.808 37.472 82.632C37.088 84.488 36.592 86.936 35.984 89.976L34.976 95.16C34.944 95.512 34.768 95.816 34.448 96.072C34.16 96.36 33.888 96.504 33.632 96.504ZM41.408 63.048C41.92 61.928 42.592 60.52 43.424 58.824C44.288 57.128 44.88 56.008 45.2 55.464C42.32 56.424 39.472 57.24 36.656 57.912C37.392 58.616 38.24 59.496 39.2 60.552C40.16 61.608 40.896 62.44 41.408 63.048Z" fill="#FEFDFF"/>
<path d="M4.65612 57.2225C4.65612 59.8967 6.0655 61.5048 8.88424 62.0469C9.42631 62.1553 10.0406 62.2095 10.7273 62.2095C15.2445 62.2095 18.8221 60.7459 21.4602 57.8187C24.0982 54.9277 25.4173 51.2778 25.4173 46.869C25.4173 45.1344 25.092 43.5443 24.4415 42.0988C23.8272 40.6172 23.0502 39.4066 22.1107 38.467C21.1711 37.4913 20.1412 36.5155 19.0209 35.5398C17.9367 34.5641 16.9249 33.6787 15.9853 32.8837C15.0457 32.0887 14.2507 31.131 13.6002 30.0107C12.9859 28.8905 12.6787 27.6979 12.6787 26.4331C12.6787 23.1084 14.1604 20.0548 17.1236 17.2722C20.1231 14.4534 23.3393 13.0441 26.7724 13.0441C27.459 13.0441 27.965 13.297 28.2902 13.803C28.6155 14.3089 28.7781 14.8148 28.7781 15.3208L28.7239 16.0254C28.4709 15.8809 27.8385 15.8086 26.8266 15.8086C24.5138 15.8086 22.2733 16.8927 20.105 19.061C17.9367 21.2293 16.8526 23.7408 16.8526 26.5957C16.8526 27.7521 17.1598 28.8905 17.7741 30.0107C18.4246 31.0949 19.2196 32.0525 20.1592 32.8837C21.0988 33.7149 22.1107 34.6544 23.1948 35.7024C24.2789 36.7143 25.2908 37.7262 26.2304 38.738C27.1699 39.7137 27.9469 40.9243 28.5612 42.3699C29.2117 43.7792 29.537 45.2789 29.537 46.869C29.537 51.2417 27.7301 55.1265 24.1163 58.5234C20.5025 61.9204 16.0395 63.6189 10.7273 63.6189C6.24619 63.6189 3.40937 62.1733 2.21683 59.2823C1.27724 56.8972 1.63862 54.2592 3.30096 51.3682C4.9633 48.4771 7.36646 46.5257 10.5104 45.5138C11.6668 45.1525 12.6968 44.9718 13.6002 44.9718C14.5037 44.9718 15.118 45.1344 15.4432 45.4596C15.8046 45.7487 16.0395 46.2185 16.1479 46.869C12.751 46.869 9.84189 48.2422 7.42066 50.9887C5.57764 53.0486 4.65612 55.1265 4.65612 57.2225ZM29.808 27.2462C29.808 27.4269 29.6273 27.5172 29.2659 27.5172C28.9407 27.5172 28.6335 27.445 28.3444 27.3004C28.0553 27.1559 27.9108 26.9571 27.9108 26.7041C27.9108 23.0181 28.3264 20.0548 29.1575 17.8143C29.9887 15.5737 31.0909 14.4534 32.4641 14.4534C32.8255 14.4534 33.1327 14.5799 33.3856 14.8329C33.6386 15.0859 33.7651 15.4111 33.7651 15.8086C32.1389 17.4348 30.9644 19.8741 30.2417 23.1265C29.9526 24.4275 29.808 25.8007 29.808 27.2462Z" fill="#FEFDFF"/>
</svg>
