<svg width="80" height="80" viewBox="0 0 80 80" fill="none" xmlns="http://www.w3.org/2000/svg">
<path d="M29.443 49.48C28.3142 53.1675 29.1162 58.2963 31.7876 60.7132V60.6247L31.8767 60.3887C32.2034 58.8273 33.4808 57.8538 35.1146 57.9128C36.6274 57.9423 37.491 58.7388 37.6968 60.4772C37.7859 61.1262 37.7859 61.7752 37.8156 62.4537V62.6602C37.8156 64.1352 38.2315 65.5491 39.0632 66.7881C39.8059 67.9681 40.8455 68.8805 42.2396 69.5L42.1801 69.382L42.1207 69.146C41.0811 66.0506 41.8237 63.8992 44.5544 62.0702L45.3862 61.5097L47.2279 60.3023C48.2856 59.5678 49.1721 58.6164 49.8277 57.5124C50.4833 56.4084 50.8926 55.1775 51.0281 53.9029C51.1766 52.7819 51.0281 51.6904 50.7013 50.6305L50.2557 50.9255C46.1288 53.1064 41.4078 53.8755 36.8353 52.9905C34.0749 52.5754 31.4035 51.8105 29.4133 49.5095L29.443 49.48Z" fill="url(#paint0_linear_2482_437)"/>
<path d="M16.5 48.831C16.5 48.831 24.427 44.996 32.3838 44.996L38.4097 26.5396C38.6176 25.6546 39.2712 25.0646 40.0138 25.0646C40.7564 25.0646 41.3802 25.6546 41.6179 26.5691L47.6141 44.9981C57.0561 44.9981 63.5 48.8331 63.5 48.8331L49.9905 12.27C49.634 11.1785 48.9508 10.5 48.0894 10.5H31.9382C31.0768 10.5 30.453 11.1785 30.0371 12.27L16.5 48.831Z" fill="white"/>
<defs>
<linearGradient id="paint0_linear_2482_437" x1="16.4831" y1="69.4124" x2="76.6258" y2="48.8505" gradientUnits="userSpaceOnUse">
<stop stop-color="#D83333"/>
<stop offset="1" stop-color="#F041FF"/>
</linearGradient>
</defs>
</svg>
