<svg width="80" height="80" viewBox="0 0 80 80" fill="none" xmlns="http://www.w3.org/2000/svg">
<path d="M29.5883 71.1516C35.3515 71.1516 40.0008 66.5153 40.0008 60.7682V50.3849H29.5883C23.8251 50.3849 19.1758 55.0212 19.1758 60.7682C19.1758 66.5153 23.8251 71.1516 29.5883 71.1516Z" fill="#0ACF83"/>
<path d="M19.1758 40.0016C19.1758 34.2545 23.8251 29.6182 29.5883 29.6182H40.0008V50.3849H29.5883C23.8251 50.3849 19.1758 45.7486 19.1758 40.0016Z" fill="#A259FF"/>
<path d="M19.1758 19.2349C19.1758 13.4878 23.8251 8.85156 29.5883 8.85156H40.0008V29.6182H29.5883C23.8251 29.6182 19.1758 24.9819 19.1758 19.2349Z" fill="#F24E1E"/>
<path d="M40.0008 8.85156H50.4133C56.1765 8.85156 60.8258 13.4878 60.8258 19.2349C60.8258 24.9819 56.1765 29.6182 50.4133 29.6182H40.0008V8.85156Z" fill="#FF7262"/>
<path d="M60.8258 40.0016C60.8258 45.7486 56.1765 50.3849 50.4133 50.3849C44.6501 50.3849 40.0008 45.7486 40.0008 40.0016C40.0008 34.2545 44.6501 29.6182 50.4133 29.6182C56.1765 29.6182 60.8258 34.2545 60.8258 40.0016Z" fill="#1ABCFE"/>
</svg>
