<svg width="80" height="80" viewBox="0 0 80 80" fill="none" xmlns="http://www.w3.org/2000/svg">
<path d="M62.3868 18.1193L47.7752 9.67803C45.4328 8.31789 42.773 7.60156 40.0652 7.60156C37.3573 7.60156 34.6976 8.31789 32.3552 9.67803L17.6762 18.1193C12.963 20.8883 10 26.0207 10 31.4908V48.4413C10 53.9792 12.9627 59.0438 17.6762 61.8125L32.2879 70.3219C34.6303 71.6819 37.29 72.3982 39.9978 72.3982C42.7056 72.3982 45.3653 71.6819 47.7077 70.3219L62.3193 61.8125C67.1003 59.0438 69.9955 53.9789 69.9955 48.4413V31.4908C70.1303 26.0207 67.1676 20.8883 62.3868 18.1193ZM40.0314 55.0595C31.7493 55.0595 25.0157 48.3061 25.0157 39.9999C25.0157 31.6933 31.7493 24.9401 40.0314 24.9401C48.3138 24.9401 55.1146 31.6933 55.1146 39.9999C55.1146 48.3066 48.381 55.0595 40.0314 55.0595Z" fill="url(#paint0_linear_2482_448)"/>
<defs>
<linearGradient id="paint0_linear_2482_448" x1="-3991.82" y1="5312.51" x2="6631.16" y2="2650.3" gradientUnits="userSpaceOnUse">
<stop offset="0.26563" stop-color="#592EE1"/>
<stop offset="1" stop-color="#B836D9"/>
</linearGradient>
</defs>
</svg>
