<svg width="80" height="80" viewBox="0 0 80 80" fill="none" xmlns="http://www.w3.org/2000/svg">
<path d="M38.385 6.91315L11.6175 22.0634C11.1287 22.3339 10.7209 22.7311 10.4365 23.2135C10.152 23.696 10.0013 24.2462 10 24.807V55.1503C10.0023 55.7115 10.1531 56.2621 10.4369 56.7456C10.7207 57.229 11.1273 57.6279 11.615 57.9014L38.3875 73.0743C38.8814 73.3534 39.4384 73.5 40.005 73.5C40.5716 73.5 41.1286 73.3534 41.6225 73.0743L68.385 57.9039C68.8731 57.6302 69.2799 57.2309 69.5637 56.747C69.8475 56.2631 69.9981 55.712 70 55.1503V24.8246C69.9991 24.2634 69.8486 23.7127 69.5642 23.2297C69.2797 22.7467 68.8717 22.3492 68.3825 22.0785L41.625 6.92571C41.1311 6.64661 40.5741 6.5 40.0075 6.5C39.4409 6.5 38.8839 6.64661 38.39 6.92571L38.385 6.91315Z" fill="#388E3C"/>
<path d="M10.7625 57.0447C11.0236 57.379 11.3472 57.659 11.715 57.8688L38.5025 73.0492C39.0678 73.3723 39.7166 73.5176 40.365 73.4662C40.5798 73.4474 40.7923 73.4088 41 73.3507L69.2325 22.6187C69.0171 22.3879 68.7695 22.1899 68.4975 22.0307L50.95 12.0964L41.6875 6.86541C41.4247 6.7181 41.1429 6.60818 40.85 6.53879L10.7625 57.0447Z" fill="#4CAF50"/>
</svg>
