<svg width="80" height="80" viewBox="0 0 80 80" fill="none" xmlns="http://www.w3.org/2000/svg">
<path d="M54.926 54.2265C55.3224 50.9203 55.2037 50.435 57.6613 50.9709L58.285 51.0256C60.1749 51.1116 62.647 50.7209 64.0995 50.0448C67.2262 48.5909 69.0797 46.1642 65.9975 46.8014C58.9653 48.2553 58.482 45.8692 58.482 45.8692C65.9076 34.8292 69.0115 20.8145 66.3318 17.3838C59.0239 8.02699 46.3741 12.4516 46.1625 12.566L46.0948 12.5786C44.7055 12.2897 43.1504 12.1171 41.4035 12.0887C38.2213 12.0361 35.8067 12.9248 33.9749 14.3165C33.9749 14.3165 11.4082 5.00016 12.4582 26.0326C12.6814 30.5068 18.858 59.888 26.2255 51.0134C28.9184 47.7685 31.5204 45.0246 31.5204 45.0246C32.8123 45.8844 34.3597 46.3237 35.9819 46.1658L36.1077 46.0585C36.0683 46.4613 36.0854 46.8555 36.1577 47.3221C34.2602 49.4471 34.8178 49.8201 31.0234 50.6025C27.1841 51.395 29.4396 52.8065 30.9118 53.1754C32.6971 53.6228 36.8268 54.2564 39.6177 50.3424L39.5066 50.7887C40.251 51.3859 40.201 55.0787 40.3061 57.7169C40.4116 60.3556 40.5879 62.8176 41.1247 64.2696C41.6616 65.7215 42.2949 69.4598 47.2817 68.389C51.4493 67.4963 54.6356 66.2083 54.926 54.2265Z" fill="black"/>
<path d="M45.6529 71C43.4474 71 42.0111 70.1452 41.1389 69.3198C39.8222 68.0749 39.3 66.4711 38.9879 65.5131L38.8531 65.1133C38.2248 63.414 38.0117 60.9671 37.8854 57.8163C37.8662 57.3431 37.8531 56.8557 37.8384 56.339C37.8278 55.961 37.8147 55.4868 37.7955 54.9909C37.0009 55.3705 36.1575 55.6376 35.2895 55.7844C33.7345 56.0506 32.0628 55.9645 30.3199 55.5278C29.0901 55.2196 27.8124 54.5809 27.0841 53.5946C24.9614 55.4575 22.9367 55.2049 21.8337 54.836C19.8878 54.1857 18.1464 52.3583 16.5096 49.2505C15.3434 47.0364 14.2157 44.1517 13.1571 40.676C11.3137 34.6234 10.1425 28.2484 10.0385 26.1552C9.71124 19.6041 11.4713 14.9189 15.2687 12.2311C21.259 7.99123 30.3351 10.4847 33.6441 11.6167C35.8673 10.2741 38.4829 9.62079 41.4384 9.66785C43.0257 9.69366 44.5373 9.83334 45.9413 10.0844C47.4059 9.62281 50.2988 8.96036 53.6103 9.00186C59.7117 9.07473 64.7677 11.4573 68.2307 15.8921C70.7024 19.056 69.4802 25.7003 68.5323 29.3794C67.1979 34.5546 64.8601 40.0586 61.9885 44.8501C62.7682 44.8557 63.898 44.7621 65.504 44.4296C68.6727 43.7742 69.5994 45.4767 69.8509 46.2388C70.8585 49.2965 66.4788 51.6072 65.1126 52.2429C63.3622 53.0571 60.5082 53.5531 58.1709 53.4458L58.0688 53.4392L57.4547 53.3851L57.3941 53.8982L57.3355 54.3998C57.1785 60.4721 56.3128 64.3178 54.5315 66.8588C52.6644 69.5228 50.0695 70.2692 47.7837 70.7601C47.0039 70.9271 46.2953 71 45.6529 71ZM41.0116 48.8992C42.4353 50.0409 42.5601 52.1892 42.6717 56.2039C42.6858 56.7049 42.6989 57.1791 42.7166 57.6219C42.7702 58.963 42.8959 62.1032 43.3868 63.4301C43.456 63.6179 43.5181 63.8082 43.5838 64.0101C44.1307 65.6882 44.405 66.5298 46.7701 66.0233C48.7554 65.5966 49.7761 65.2141 50.5751 64.0744C51.7361 62.4175 52.3856 59.0845 52.5048 54.168L54.9204 54.2267L52.5215 53.9382L52.5922 53.338C52.822 51.3593 52.9876 49.9301 54.3073 48.9848C55.3664 48.2267 56.5729 48.3 57.534 48.4736C56.478 47.674 56.1861 46.7363 56.1083 46.3517L55.9068 45.3572L56.4729 44.5156C59.734 39.6674 62.4228 33.7089 63.851 28.1674C65.3187 22.4736 64.8712 19.4498 64.4238 18.8779C58.5001 11.2934 48.2281 14.425 47.1554 14.7802L46.9741 14.8784L46.065 15.0479L45.5994 14.9513C44.3156 14.6841 42.8893 14.5363 41.3606 14.5115C38.9586 14.471 37.0208 15.0398 35.4319 16.2478L34.3294 17.0854L33.0502 16.5575C30.3169 15.4376 22.2888 13.1861 18.0525 16.1927C15.701 17.8617 14.6298 21.132 14.8682 25.9128C14.947 27.4913 16.0172 33.4665 17.7828 39.2616C20.2226 47.2702 22.4398 49.9306 23.3655 50.2398C23.5271 50.2945 23.9463 49.9681 24.3635 49.466C26.1029 47.3767 27.904 45.3397 29.7644 43.3577L31.1633 41.8825L32.8547 43.0085C33.5365 43.4625 34.2885 43.7201 35.0607 43.7687L39.0945 40.3213L38.5101 46.297C38.497 46.4311 38.4904 46.6138 38.543 46.9529L38.7187 48.0855L37.9561 48.9397L37.8682 49.0389L40.0844 50.0637L41.0116 48.8992Z" fill="black"/>
<path d="M65.9911 46.8009C58.9584 48.2548 58.475 45.8687 58.475 45.8687C65.9006 34.8282 69.0046 20.813 66.3259 17.3833C59.018 8.02699 46.3672 12.4516 46.1561 12.5665L46.0879 12.5786C44.6986 12.2896 43.1435 12.1176 41.3956 12.0892C38.2133 12.0371 35.7997 12.9253 33.968 14.317C33.968 14.317 11.4008 5.00117 12.4502 26.0331C12.6735 30.5078 18.8501 59.889 26.2176 51.0144C28.9105 47.7695 31.512 45.0256 31.512 45.0256C32.8044 45.8854 34.3513 46.3247 35.973 46.1668L36.0992 46.0595C36.0598 46.4623 36.078 46.8565 36.1497 47.3231C34.2518 49.4481 34.8094 49.8211 31.015 50.6035C27.1757 51.396 29.4312 52.8075 30.9039 53.1764C32.6887 53.6238 36.8189 54.2574 39.6093 50.3434L39.4977 50.7898C40.2416 51.3869 40.7638 54.6724 40.6764 57.6506C40.589 60.6288 40.53 62.6739 41.1163 64.2711C41.7021 65.8682 42.286 69.4614 47.2738 68.3905C51.4413 67.4958 53.6009 65.1764 53.9019 61.308C54.115 58.5575 54.5973 58.9644 54.6282 56.5054L55.0155 55.3414C55.462 51.6131 55.0862 50.4107 57.6543 50.9699L58.2781 51.0246C60.1679 51.1106 62.6411 50.7199 64.0931 50.0438C67.2193 48.5909 69.0733 46.1637 65.9911 46.8009Z" fill="#336791"/>
<path d="M45.9066 69.506C41.7491 69.506 40.432 66.2069 39.8931 64.8577C39.1043 62.8805 38.9341 55.2074 39.1098 48.9149C39.1124 48.8087 39.136 48.7042 39.1791 48.6072C39.2222 48.5103 39.284 48.4228 39.361 48.3499C39.438 48.277 39.5286 48.2201 39.6277 48.1824C39.7267 48.1447 39.8322 48.1271 39.9381 48.1304C40.0439 48.1333 40.148 48.1571 40.2446 48.2003C40.3412 48.2436 40.4284 48.3055 40.5011 48.3825C40.5738 48.4596 40.6306 48.5502 40.6683 48.6493C40.7061 48.7484 40.7239 48.8539 40.7209 48.9599C40.5184 56.2175 40.8057 62.7944 41.3896 64.258C42.3007 66.5399 43.6824 68.5359 47.5889 67.6973C51.2974 66.9002 52.6863 65.4913 53.305 61.8977C53.7797 59.1401 54.7186 51.2949 54.8342 49.7468C54.842 49.641 54.8705 49.5378 54.9181 49.4431C54.9657 49.3483 55.0315 49.264 55.1117 49.1948C55.192 49.1255 55.285 49.0729 55.3856 49.0398C55.4862 49.0067 55.5923 48.9938 55.6979 49.0019C55.9109 49.0181 56.1088 49.1183 56.2482 49.2805C56.3876 49.4428 56.457 49.6538 56.4413 49.8673C56.3206 51.4791 55.3862 59.3091 54.8933 62.1725C54.163 66.4169 52.2747 68.342 47.9268 69.2762C47.1879 69.4346 46.5167 69.5055 45.9066 69.506ZM23.3637 53.3921C23.0003 53.3909 22.6394 53.3311 22.295 53.215C19.5946 52.3121 17.0224 47.9052 14.6497 40.1152C12.8437 34.1856 11.6993 27.9963 11.5988 25.9846C11.3013 20.021 12.8336 15.8019 16.1542 13.4451C22.7233 8.78114 33.7741 13.2224 34.2412 13.4137C34.4391 13.4947 34.5968 13.6512 34.6796 13.8487C34.7624 14.0462 34.7635 14.2686 34.6826 14.4669C34.6018 14.6652 34.4457 14.8232 34.2486 14.9062C34.0515 14.9891 33.8295 14.9902 33.6316 14.9092C33.5251 14.8657 22.9283 10.6116 17.0825 14.765C14.2432 16.7822 12.9396 20.5302 13.2078 25.9042C13.2922 27.599 14.3613 33.6395 16.1906 39.6436C18.3087 46.598 20.7193 50.9862 22.8046 51.6831C23.1319 51.7924 24.1278 52.1249 25.5515 50.4093C27.2117 48.4112 28.9343 46.4659 30.7165 44.5763C30.8657 44.4272 31.0671 44.3426 31.2777 44.3405C31.4883 44.3384 31.6914 44.419 31.8435 44.565C31.9956 44.711 32.0845 44.9109 32.0914 45.1218C32.0982 45.3328 32.0224 45.5381 31.8802 45.6937C31.8559 45.719 29.4322 48.258 26.7909 51.4422C25.5399 52.9498 24.3409 53.3921 23.3637 53.3921ZM58.4281 46.5879C58.282 46.5877 58.1387 46.5477 58.0135 46.4723C57.8884 46.3968 57.786 46.2886 57.7174 46.1593C57.6489 46.0301 57.6166 45.8846 57.6242 45.7384C57.6318 45.5922 57.6789 45.4508 57.7604 45.3293C65.2668 34.1678 67.9016 20.6815 65.6451 17.7918C62.8048 14.1551 58.7943 12.2558 53.7242 12.146C49.9702 12.0651 46.9864 13.0256 46.4985 13.1931L46.3758 13.2432C45.8854 13.3976 45.5092 13.1283 45.3673 12.8135C45.2863 12.6332 45.2741 12.4294 45.3328 12.2406C45.3915 12.0518 45.5171 11.8911 45.6859 11.7887C45.7092 11.7751 45.7829 11.7437 45.9026 11.6997C46.7314 11.3955 49.7606 10.4846 53.5125 10.5276C59.1225 10.5873 63.7568 12.7548 66.9133 16.7969C68.4067 18.7093 68.4102 23.1152 66.9229 28.8854C65.4067 34.7686 62.5538 41.0909 59.0963 46.2322C58.9417 46.4634 58.6872 46.5879 58.4281 46.5879ZM58.8119 51.7549C57.5301 51.7549 56.3812 51.5738 55.6933 51.1608C54.9862 50.7362 54.8514 50.1593 54.8337 49.8531C54.6408 46.4574 56.5105 45.8663 57.464 45.5965C57.3312 45.3951 57.1423 45.1583 56.9468 44.9138C56.3908 44.2175 55.6292 43.264 55.0423 41.8379C54.9504 41.6152 54.6625 41.0975 54.3292 40.4978C52.5217 37.2498 48.7606 30.4912 51.1767 27.0302C52.2949 25.4285 54.5216 24.7979 57.8024 25.1496C56.8372 22.2032 52.2414 12.9866 41.336 12.8075C38.0563 12.7528 35.3665 13.7634 33.3453 15.8085C28.8201 20.388 28.9838 28.6739 28.9863 28.7569C28.9891 28.8629 28.971 28.9684 28.9331 29.0674C28.8952 29.1664 28.8382 29.257 28.7653 29.3339C28.6925 29.4108 28.6053 29.4726 28.5086 29.5158C28.4119 29.5589 28.3077 29.5826 28.202 29.5853C28.0962 29.5881 27.9909 29.57 27.8921 29.532C27.7933 29.494 27.7029 29.4369 27.6261 29.364C27.5494 29.291 27.4877 29.2036 27.4446 29.1067C27.4016 29.0098 27.378 28.9054 27.3752 28.7994C27.3651 28.4315 27.1964 19.7361 32.2004 14.6718C34.5422 12.3019 37.625 11.1319 41.3628 11.1931C48.3394 11.308 52.8302 14.8621 55.3686 17.8232C58.1357 21.0504 59.4922 24.6101 59.6038 25.7984C59.6872 26.682 59.0544 26.8586 58.9266 26.8849L58.6357 26.8915C55.416 26.3748 53.3504 26.7336 52.4964 27.9563C50.6586 30.5884 54.2166 36.9816 55.7357 39.7119C56.1236 40.4082 56.4034 40.9118 56.5317 41.2225C57.0307 42.4351 57.6817 43.2499 58.2044 43.9047C58.6645 44.4806 59.0629 44.9801 59.2054 45.5662C59.2715 45.6826 60.2104 47.0743 65.7815 45.9219C67.1779 45.6335 68.0153 45.8799 68.2713 46.6557C68.7749 48.1816 65.9497 49.9614 64.3856 50.6891C62.9841 51.342 60.7472 51.7549 58.8119 51.7549ZM56.4403 49.72C56.617 49.8987 57.5014 50.2069 59.3326 50.1279C60.9609 50.0581 62.678 49.7033 63.7083 49.2241C65.0259 48.6107 65.9057 47.925 66.3613 47.4569L66.1088 47.5034C62.5467 48.2403 60.0271 48.1421 58.62 47.2114C58.5254 47.1489 58.4343 47.0812 58.3473 47.0085C58.1948 47.0687 58.0539 47.1082 57.9534 47.1365C57.1554 47.3607 56.3302 47.593 56.4403 49.72ZM33.4296 54.2317C32.5448 54.2317 31.6135 54.1107 30.6625 53.8724C29.6772 53.6254 28.0161 52.882 28.0414 51.6608C28.0701 50.2909 30.0585 49.8799 30.807 49.7256C33.5109 49.1674 33.6872 48.9437 34.5321 47.8683C34.7786 47.555 35.0851 47.1648 35.5033 46.6972C36.124 46.0009 36.8023 45.6481 37.5194 45.6481C38.0189 45.6481 38.4285 45.8177 38.6992 45.9305C39.5618 46.2888 40.2815 47.1552 40.5775 48.1912C40.8446 49.1259 40.7168 50.0257 40.2189 50.7246C38.5841 53.0186 36.2361 54.2317 33.4296 54.2317ZM29.7822 51.7301C30.0251 51.9184 30.512 52.1699 31.0539 52.3055C31.8776 52.512 32.6766 52.6168 33.4301 52.6168C35.726 52.6168 37.5694 51.6644 38.9083 49.7858C39.1876 49.3941 39.1038 48.8966 39.029 48.635C38.8724 48.0869 38.4836 47.5884 38.0831 47.4219C37.8659 47.3319 37.6856 47.263 37.5199 47.263C37.4311 47.263 37.1604 47.263 36.7048 47.7737C36.3904 48.1279 36.0882 48.4928 35.7988 48.8678C34.7463 50.2069 34.2639 50.6613 31.1327 51.3076C30.3686 51.4645 29.9767 51.6244 29.7822 51.7301ZM35.9786 48.0054C35.7862 48.0051 35.6003 47.9359 35.4544 47.8102C35.3085 47.6846 35.2123 47.5108 35.1831 47.3202C35.1629 47.1862 35.1494 47.0512 35.1427 46.9159C33.0902 46.8774 31.11 45.9948 29.6065 44.4229C27.7055 42.4356 26.8404 39.682 27.2333 36.8688C27.66 33.8136 27.5005 31.1167 27.4146 29.6678C27.3909 29.265 27.3737 28.974 27.3747 28.7726C27.3762 28.517 27.3813 27.8394 29.6418 26.6911C30.4458 26.2827 32.0579 25.5702 33.819 25.3875C36.7366 25.0853 38.6598 26.3875 39.2356 29.0545C40.7896 36.2549 39.3588 39.4396 38.3139 41.7655C38.1194 42.1987 37.9356 42.6076 37.7886 43.0039L37.6588 43.3531C37.1068 44.8364 36.6296 46.1178 36.776 47.0748C36.7921 47.1796 36.7874 47.2865 36.7622 47.3895C36.737 47.4925 36.6919 47.5895 36.6292 47.675C36.5666 47.7605 36.4878 47.8328 36.3973 47.8878C36.3068 47.9427 36.2064 47.9793 36.1018 47.9953L35.9786 48.0054ZM28.9913 28.9963L29.0226 29.5727C29.1115 31.0778 29.2772 33.8784 28.8287 37.093C28.505 39.4133 29.212 41.678 30.7696 43.3055C32.0004 44.592 33.62 45.302 35.2846 45.302H35.319C35.5053 44.515 35.8149 43.6841 36.1483 42.7888L36.277 42.4417C36.4432 41.9943 36.6376 41.5611 36.8437 41.1026C37.8492 38.8637 39.1012 36.0768 37.6593 29.3961C37.374 28.0727 36.6816 27.307 35.5437 27.0545C33.2064 26.5373 29.7231 28.2989 28.9913 28.9963ZM33.8549 28.6537C33.8145 28.9391 34.3766 29.7012 35.1099 29.803C35.8417 29.9057 36.4679 29.3095 36.5078 29.0241C36.5477 28.7387 35.9861 28.4239 35.2528 28.3217C34.5195 28.2195 33.8938 28.3682 33.8549 28.6537ZM35.2781 30.0838L35.0725 30.0697C34.618 30.0064 34.1584 29.7195 33.8438 29.3014C33.7332 29.1547 33.5529 28.8703 33.5887 28.6162C33.6397 28.2437 34.0932 28.0206 34.8008 28.0206C34.9589 28.0206 35.1235 28.0322 35.2892 28.0555C35.676 28.1091 36.0351 28.221 36.3003 28.3692C36.7599 28.6263 36.7937 28.9133 36.773 29.0616C36.7164 29.473 36.0634 30.0838 35.2781 30.0838ZM34.122 28.7012C34.1448 28.8773 34.5801 29.4583 35.1468 29.5368L35.2786 29.5459C35.8018 29.5459 36.1927 29.1334 36.2387 28.9983C36.1902 28.9062 35.8538 28.6774 35.216 28.5884C35.0786 28.5689 34.94 28.559 34.8013 28.5585C34.3912 28.5585 34.1735 28.6511 34.122 28.7012ZM56.1443 28.0712C56.1842 28.3566 55.6226 29.1187 54.8898 29.221C54.1575 29.3232 53.5307 28.7276 53.4903 28.4421C53.4519 28.1567 54.0135 27.8414 54.7459 27.7397C55.4782 27.637 56.1039 27.7863 56.1443 28.0712ZM54.7206 29.3667C54.0156 29.3667 53.407 28.8171 53.357 28.4603C53.2989 28.0322 54.0024 27.7068 54.7267 27.6061C54.8863 27.5838 55.0443 27.5727 55.1963 27.5727C55.8216 27.5727 56.2357 27.7564 56.2771 28.053C56.3039 28.2448 56.1569 28.5408 55.9039 28.808C55.7367 28.9836 55.3857 29.2878 54.9075 29.3541L54.7206 29.3667ZM55.1969 27.8419C55.0568 27.8419 54.9127 27.8522 54.7645 27.8728C54.0368 27.9745 53.6024 28.267 53.6237 28.4239C53.6479 28.5965 54.1125 29.098 54.7211 29.098L54.8711 29.0874C55.2686 29.0322 55.567 28.7721 55.7095 28.6223C55.9332 28.387 56.0221 28.1653 56.0115 28.0899C55.9973 27.9897 55.7287 27.8419 55.1969 27.8419ZM57.1993 44.4629C57.0533 44.463 56.9101 44.4233 56.7849 44.3481C56.6596 44.2728 56.5572 44.1649 56.4885 44.0358C56.4198 43.9067 56.3875 43.7613 56.3949 43.6152C56.4023 43.4691 56.4492 43.3278 56.5307 43.2063C58.2468 40.638 57.9327 38.0191 57.6291 35.4862C57.4993 34.4072 57.366 33.2913 57.4003 32.2205C57.4357 31.1188 57.5756 30.2098 57.7104 29.3308C57.8705 28.2893 58.022 27.3055 57.9594 26.1375C57.9537 26.0316 57.9689 25.9256 58.004 25.8256C58.0392 25.7256 58.0937 25.6336 58.1644 25.5547C58.235 25.4758 58.3205 25.4116 58.4159 25.3658C58.5114 25.32 58.6149 25.2935 58.7205 25.2878C58.8262 25.282 58.9319 25.2972 59.0317 25.3325C59.1315 25.3677 59.2234 25.4223 59.3021 25.4931C59.4612 25.6361 59.557 25.8366 59.5685 26.0504C59.6402 27.3854 59.469 28.4988 59.3033 29.5762C59.1756 30.4077 59.0432 31.2675 59.0114 32.2721C58.9806 33.2205 59.1013 34.2276 59.2291 35.2934C59.5523 37.9867 59.9185 41.0393 57.87 44.1046C57.7961 44.2149 57.6963 44.3052 57.5793 44.3677C57.4624 44.4302 57.3319 44.4629 57.1993 44.4629Z" fill="white"/>
</svg>
