<svg width="80" height="80" viewBox="0 0 80 80" fill="none" xmlns="http://www.w3.org/2000/svg">
<path d="M10.2787 35.6743C10.1357 36.6761 10.0427 37.6844 10 38.6954H55.5742C55.415 38.3845 55.2012 38.1042 54.9856 37.8299C47.1944 27.764 43.0033 28.6367 37.0079 28.381C35.009 28.2988 33.6535 28.2658 25.6971 28.2658C21.4387 28.2658 16.8092 28.2766 12.301 28.2886C11.7174 29.8639 11.1545 31.3907 10.8805 32.6328H34.2343V35.6743H10.2787ZM55.9334 41.74H10.0234C10.0714 42.5516 10.1471 43.3523 10.2565 44.1423H52.6426C54.5321 44.1423 55.5899 43.0702 55.9334 41.74ZM12.6377 52.4398C12.6377 52.4398 19.6645 69.6936 39.9684 70C52.1038 70 62.5311 62.7926 67.2676 52.4398H12.6377Z" fill="#100F13"/>
<path d="M39.968 10C28.7472 10 18.9831 16.1617 13.8268 25.2702C17.8563 25.2618 25.7039 25.257 25.7039 25.257H25.7058V25.254C34.9817 25.254 35.3264 25.2954 37.1385 25.3711L38.2605 25.4124C42.1687 25.5428 46.9724 25.9623 50.7521 28.822C52.8037 30.373 55.766 33.7964 57.5318 36.2353C59.1643 38.4911 59.6339 41.0843 58.524 43.5688C57.5024 45.8522 55.3042 47.2142 52.6422 47.2142H10.9779C10.9779 47.2142 11.226 48.2656 11.5979 49.4262H68.4708C69.4808 46.3904 69.9971 43.2122 70 40.0128C70.0006 23.4388 56.5546 10 39.968 10Z" fill="#100F13"/>
</svg>
