<svg width="80" height="80" viewBox="0 0 80 80" fill="none" xmlns="http://www.w3.org/2000/svg">
<path d="M40 45.4043C43.0173 45.4043 45.4633 42.9847 45.4633 40C45.4633 37.0153 43.0173 34.5957 40 34.5957C36.9827 34.5957 34.5367 37.0153 34.5367 40C34.5367 42.9847 36.9827 45.4043 40 45.4043Z" fill="#61DAFB"/>
<path d="M60.7508 31.0877C59.6965 30.7084 58.5943 30.3292 57.4441 29.9973C57.7316 28.8596 57.9712 27.7218 58.1629 26.6315C59.1693 20.3739 58.0671 15.9651 55 14.2585C54.0895 13.737 53.0831 13.5 51.9329 13.5C48.5783 13.5 44.3131 15.9651 40 20.0894C35.6869 15.9651 31.4217 13.5 28.0671 13.5C26.9169 13.5 25.9105 13.737 25 14.2585C21.9329 16.0125 20.8307 20.4213 21.8371 26.6315C22.0288 27.7218 22.2684 28.8596 22.5559 29.9973C21.4058 30.3292 20.3035 30.661 19.2492 31.0877C13.2588 33.3631 10 36.4919 10 40C10 43.508 13.3067 46.6369 19.2492 48.9123C20.3035 49.2916 21.4058 49.6708 22.5559 50.0027C22.2684 51.1404 22.0288 52.2782 21.8371 53.3685C20.8307 59.6261 21.9329 64.0349 25 65.7415C25.9105 66.263 26.9169 66.5 28.0671 66.5C31.4696 66.5 35.7348 64.0349 40 59.9106C44.3131 64.0349 48.5783 66.5 51.9329 66.5C53.0831 66.5 54.0895 66.263 55 65.7415C58.0671 63.9875 59.1693 59.5787 58.1629 53.3685C57.9712 52.2782 57.7316 51.1404 57.4441 50.0027C58.5943 49.6708 59.6965 49.339 60.7508 48.9123C66.7412 46.6369 70 43.508 70 40C70 36.4919 66.7412 33.3631 60.7508 31.0877ZM53.6581 16.6288C55.623 17.7665 56.2939 21.2746 55.4792 26.2522C55.3355 27.2478 55.0958 28.2907 54.8083 29.381C52.3163 28.8122 49.6805 28.4329 46.901 28.1959C45.2716 25.9204 43.5942 23.8819 41.9169 22.0331C45.4633 18.5725 49.0575 16.2021 51.9808 16.2021C52.6038 16.2021 53.1789 16.3444 53.6581 16.6288ZM48.2907 44.7406C47.4281 46.2576 46.4217 47.7746 45.3674 49.2916C43.5942 49.4338 41.8211 49.4812 40 49.4812C38.131 49.4812 36.3578 49.4338 34.6326 49.2916C33.5783 47.7746 32.6198 46.2576 31.7572 44.7406C30.8466 43.1762 29.984 41.5644 29.2173 40C29.984 38.4356 30.8466 36.8238 31.7572 35.2594C32.6198 33.7424 33.6262 32.2254 34.6805 30.7084C36.4537 30.5662 38.2268 30.5188 40.0479 30.5188C41.9169 30.5188 43.6901 30.5662 45.4153 30.7084C46.4696 32.2254 47.4281 33.7424 48.2907 35.2594C49.2013 36.8238 50.0639 38.4356 50.8307 40C50.016 41.5644 49.2013 43.1288 48.2907 44.7406ZM52.2684 43.1762C52.9872 44.8354 53.5623 46.4472 54.0895 48.059C52.4601 48.4383 50.7348 48.7227 48.9137 48.9597C49.4888 48.059 50.1118 47.1109 50.639 46.1154C51.2141 45.1199 51.7412 44.1243 52.2684 43.1762ZM40 56.0233C38.8498 54.7907 37.7476 53.4633 36.6933 52.0886C37.7955 52.136 38.8978 52.1834 40 52.1834C41.1022 52.1834 42.2045 52.136 43.3067 52.0886C42.2524 53.4633 41.1502 54.7907 40 56.0233ZM31.0863 48.9123C29.2652 48.6753 27.5399 48.3909 25.9105 48.0116C26.4377 46.4472 27.0128 44.788 27.7316 43.1288C28.2588 44.0769 28.7859 45.0724 29.361 46.0206C29.9361 47.0635 30.5112 47.9642 31.0863 48.9123ZM27.7316 36.8238C27.0128 35.1646 26.4377 33.5528 25.9105 31.941C27.5399 31.5617 29.2652 31.2773 31.0863 31.0402C30.5112 31.941 29.8882 32.8891 29.361 33.8846C28.7859 34.8801 28.2588 35.8757 27.7316 36.8238ZM40 23.9767C41.1502 25.2093 42.2524 26.5367 43.3067 27.9114C42.2045 27.864 41.1022 27.8166 40 27.8166C38.8978 27.8166 37.7955 27.864 36.6933 27.9114C37.7476 26.5367 38.8498 25.2093 40 23.9767ZM50.639 33.932L48.9137 31.0877C50.7348 31.3247 52.4601 31.6091 54.0895 31.9884C53.5623 33.5528 52.9872 35.212 52.2684 36.8712C51.7412 35.8757 51.2141 34.8801 50.639 33.932ZM24.5208 26.2522C23.7061 21.2746 24.377 17.7665 26.3419 16.6288C26.8211 16.3444 27.3962 16.2021 28.0192 16.2021C30.8946 16.2021 34.4888 18.525 38.0831 22.0331C36.4058 23.8345 34.7284 25.9204 33.099 28.1959C30.3195 28.4329 27.6837 28.8596 25.1917 29.381C24.9042 28.2907 24.7125 27.2478 24.5208 26.2522ZM12.6837 40C12.6837 37.7719 15.4153 35.4016 20.2077 33.6476C21.1661 33.2683 22.2204 32.9365 23.2748 32.6521C24.0415 35.0224 25 37.5349 26.1502 40.0474C25 42.5599 23.9936 45.025 23.2748 47.3953C16.6613 45.4991 12.6837 42.6547 12.6837 40ZM26.3419 63.3712C24.377 62.2335 23.7061 58.7254 24.5208 53.7478C24.6645 52.7522 24.9042 51.7093 25.1917 50.619C27.6837 51.1878 30.3195 51.5671 33.099 51.8041C34.7284 54.0796 36.4058 56.1181 38.0831 57.9669C34.5367 61.4275 30.9425 63.7979 28.0192 63.7979C27.3962 63.7979 26.8211 63.6556 26.3419 63.3712ZM55.4792 53.7478C56.2939 58.7254 55.623 62.2335 53.6581 63.3712C53.1789 63.6556 52.6038 63.7979 51.9808 63.7979C49.1054 63.7979 45.5112 61.475 41.9169 57.9669C43.5942 56.1655 45.2716 54.0796 46.901 51.8041C49.6805 51.5671 52.3163 51.1404 54.8083 50.619C55.0958 51.7093 55.2875 52.7522 55.4792 53.7478ZM59.7923 46.3524C58.8339 46.7317 57.7796 47.0635 56.7252 47.3479C55.9585 44.9776 55 42.4651 53.8498 39.9526C55 37.4401 56.0064 34.975 56.7252 32.6047C63.3387 34.5009 67.3163 37.3453 67.3163 40C67.3163 42.2281 64.5367 44.5984 59.7923 46.3524Z" fill="#61DAFB"/>
</svg>
