<svg width="80" height="80" viewBox="0 0 80 80" fill="none" xmlns="http://www.w3.org/2000/svg">
<path d="M10 46.8133V33.7467H15.8019C16.6129 33.7467 17.3491 33.9333 18.0104 34.3067C18.6716 34.6676 19.1895 35.1591 19.5638 35.7813C19.9506 36.4036 20.144 37.1129 20.144 37.9093C20.144 38.6933 19.9506 39.4089 19.5638 40.056C19.1895 40.6907 18.6716 41.1947 18.0104 41.568C17.3491 41.9413 16.6129 42.128 15.8019 42.128H12.7138V46.8133H10ZM17.4302 46.8133L14.0988 40.9147L16.981 40.448L20.6868 46.832L17.4302 46.8133ZM12.7138 39.8507H15.6709C16.0078 39.8507 16.301 39.776 16.5505 39.6267C16.8126 39.4649 17.0122 39.2471 17.1495 38.9733C17.2867 38.6871 17.3553 38.3698 17.3553 38.0213C17.3553 37.648 17.2742 37.3245 17.112 37.0507C16.9498 36.7769 16.7127 36.5653 16.4008 36.416C16.0889 36.2542 15.727 36.1733 15.3153 36.1733H12.7138V39.8507Z" fill="black"/>
<path d="M26.1268 47C25.0537 47 24.1117 46.7823 23.3006 46.3467C22.5021 45.9111 21.8783 45.3137 21.429 44.5547C20.9924 43.7956 20.774 42.9244 20.774 41.9413C20.774 41.1698 20.8988 40.4667 21.1483 39.832C21.3979 39.1973 21.7472 38.6498 22.1964 38.1893C22.6456 37.7165 23.1759 37.3556 23.7873 37.1067C24.4111 36.8453 25.0849 36.7147 25.8086 36.7147C26.4824 36.7147 27.1062 36.8391 27.6802 37.088C28.2541 37.3369 28.747 37.6853 29.1588 38.1333C29.583 38.5689 29.9074 39.0916 30.132 39.7013C30.3566 40.2987 30.4563 40.9458 30.4315 41.6427L30.4127 42.464H22.4585L22.0279 40.84H28.223L27.9235 41.176V40.7653C27.8985 40.4293 27.7862 40.1307 27.5866 39.8693C27.3995 39.5956 27.1562 39.384 26.8567 39.2347C26.5573 39.0729 26.2203 38.992 25.846 38.992C25.297 38.992 24.8291 39.0978 24.4423 39.3093C24.068 39.5209 23.7811 39.832 23.5814 40.2427C23.3818 40.6533 23.2819 41.1511 23.2819 41.736C23.2819 42.3333 23.4067 42.8497 23.6563 43.2853C23.9183 43.7209 24.2801 44.0631 24.7418 44.312C25.2159 44.5484 25.7711 44.6667 26.4075 44.6667C26.8442 44.6667 27.2435 44.5983 27.6054 44.4613C27.9671 44.3244 28.3539 44.088 28.7657 43.752L30.0384 45.5253C29.6765 45.8489 29.2772 46.1227 28.8406 46.3467C28.4039 46.5583 27.9547 46.72 27.493 46.832C27.0313 46.944 26.576 47 26.1268 47Z" fill="black"/>
<path d="M34.791 47C33.8677 47 33.0442 46.8507 32.3205 46.552C31.6093 46.2409 31.0354 45.8177 30.5987 45.2827L32.2644 43.864C32.6387 44.2747 33.0629 44.5733 33.5371 44.76C34.0112 44.9343 34.4853 45.0213 34.9595 45.0213C35.1466 45.0213 35.3151 45.0027 35.4648 44.9653C35.627 44.9156 35.7642 44.8533 35.8765 44.7787C35.9888 44.6916 36.07 44.592 36.1198 44.48C36.1823 44.3556 36.2134 44.2249 36.2134 44.088C36.2134 43.8143 36.1011 43.6027 35.8765 43.4533C35.7518 43.3787 35.5584 43.2977 35.2964 43.2107C35.0343 43.1111 34.6974 43.0053 34.2857 42.8933C33.6494 42.7316 33.1066 42.5449 32.6574 42.3333C32.2207 42.1093 31.8714 41.8605 31.6093 41.5867C31.3847 41.3253 31.21 41.0453 31.0853 40.7467C30.973 40.4356 30.9168 40.0933 30.9168 39.72C30.9168 39.272 31.0167 38.8676 31.2163 38.5067C31.4159 38.1333 31.6905 37.816 32.0398 37.5547C32.4017 37.2933 32.8134 37.0942 33.275 36.9573C33.7367 36.808 34.2233 36.7333 34.7349 36.7333C35.2465 36.7333 35.7455 36.7956 36.2321 36.92C36.7188 37.0445 37.1679 37.2249 37.5797 37.4613C38.0039 37.6853 38.372 37.9529 38.6839 38.264L37.2615 39.832C37.0369 39.6204 36.7812 39.4276 36.4942 39.2533C36.2197 39.0791 35.9327 38.9422 35.6332 38.8427C35.3338 38.7431 35.0655 38.6933 34.8285 38.6933C34.6163 38.6933 34.423 38.712 34.2483 38.7493C34.0861 38.7867 33.9488 38.8489 33.8365 38.936C33.7242 39.0107 33.6369 39.104 33.5745 39.216C33.5246 39.328 33.4996 39.4524 33.4996 39.5893C33.4996 39.7262 33.5308 39.8569 33.5932 39.9813C33.6681 40.1058 33.7679 40.2116 33.8927 40.2987C34.0299 40.3733 34.2295 40.4605 34.4916 40.56C34.766 40.6596 35.1342 40.7716 35.5958 40.896C36.1947 41.0578 36.7 41.2382 37.1118 41.4373C37.536 41.6365 37.8729 41.8667 38.1224 42.128C38.3346 42.352 38.4905 42.6071 38.5903 42.8933C38.6902 43.1796 38.7401 43.4969 38.7401 43.8453C38.7401 44.4551 38.5654 44.9964 38.216 45.4693C37.8791 45.9423 37.4112 46.3156 36.8123 46.5893C36.2134 46.8631 35.5397 47 34.791 47Z" fill="black"/>
<path d="M44.3966 47C43.3236 47 42.3816 46.7823 41.5706 46.3467C40.772 45.9111 40.1482 45.3137 39.699 44.5547C39.2622 43.7956 39.0439 42.9244 39.0439 41.9413C39.0439 41.1698 39.1687 40.4667 39.4182 39.832C39.6678 39.1973 40.0171 38.6498 40.4663 38.1893C40.9155 37.7165 41.4458 37.3556 42.0572 37.1067C42.6811 36.8453 43.3548 36.7147 44.0785 36.7147C44.7522 36.7147 45.3761 36.8391 45.9501 37.088C46.524 37.3369 47.0169 37.6853 47.4286 38.1333C47.8528 38.5689 48.1772 39.0916 48.4018 39.7013C48.6264 40.2987 48.7263 40.9458 48.7013 41.6427L48.6826 42.464H40.7283L40.2979 40.84H46.4928L46.1934 41.176V40.7653C46.1684 40.4293 46.0561 40.1307 45.8565 39.8693C45.6693 39.5956 45.426 39.384 45.1266 39.2347C44.8271 39.0729 44.4902 38.992 44.1159 38.992C43.5669 38.992 43.099 39.0978 42.7122 39.3093C42.3379 39.5209 42.0509 39.832 41.8513 40.2427C41.6517 40.6533 41.5518 41.1511 41.5518 41.736C41.5518 42.3333 41.6766 42.8497 41.9262 43.2853C42.1882 43.7209 42.55 44.0631 43.0117 44.312C43.4858 44.5484 44.041 44.6667 44.6774 44.6667C45.1141 44.6667 45.5133 44.5983 45.8752 44.4613C46.2371 44.3244 46.6238 44.088 47.0356 43.752L48.3083 45.5253C47.9464 45.8489 47.5472 46.1227 47.1104 46.3467C46.6737 46.5583 46.2245 46.72 45.7629 46.832C45.3013 46.944 44.8458 47 44.3966 47Z" fill="black"/>
<path d="M49.7294 46.8133V36.9387H52.2748L52.3497 38.9547L51.8256 39.1787C51.9629 38.7307 52.2062 38.3262 52.5555 37.9653C52.9174 37.592 53.3479 37.2933 53.8469 37.0693C54.3461 36.8453 54.8701 36.7333 55.4191 36.7333C56.1677 36.7333 56.7916 36.8827 57.2906 37.1813C57.8022 37.48 58.1828 37.9342 58.4323 38.544C58.6943 39.1413 58.8253 39.8818 58.8253 40.7653V46.8133H56.1677V40.9707C56.1677 40.5227 56.1054 40.1493 55.9805 39.8507C55.8558 39.552 55.6624 39.3342 55.4003 39.1973C55.1509 39.0604 54.8389 38.9982 54.4645 39.0107C54.1651 39.0107 53.8844 39.0605 53.6223 39.16C53.3729 39.2471 53.1544 39.3778 52.9673 39.552C52.7927 39.7262 52.6491 39.9253 52.5368 40.1493C52.4371 40.3733 52.3871 40.616 52.3871 40.8773V46.8133H51.077C50.7901 46.8133 50.5342 46.8133 50.3096 46.8133C50.085 46.8133 49.8917 46.8133 49.7294 46.8133Z" fill="black"/>
<path d="M64.3104 47C63.437 47 62.6572 46.7823 61.9709 46.3467C61.2971 45.8987 60.7607 45.2951 60.3613 44.536C59.9746 43.7644 59.7812 42.8747 59.7812 41.8667C59.7812 40.8836 59.9746 40.0062 60.3613 39.2347C60.7607 38.4507 61.2971 37.8409 61.9709 37.4053C62.6572 36.9573 63.437 36.7333 64.3104 36.7333C64.7721 36.7333 65.215 36.808 65.6392 36.9573C66.0759 37.0942 66.4627 37.2871 66.7996 37.536C67.149 37.7849 67.4298 38.0649 67.6418 38.376C67.854 38.6747 67.9725 38.9858 67.9974 39.3093L67.3236 39.44V33H70V46.8133H67.4734L67.3611 44.536L67.8851 44.592C67.8602 44.9031 67.7479 45.2017 67.5482 45.488C67.3486 45.7743 67.0803 46.0356 66.7434 46.272C66.4191 46.496 66.0448 46.6764 65.6205 46.8133C65.2087 46.9377 64.7721 47 64.3104 47ZM64.9093 44.7973C65.4084 44.7973 65.8451 44.6729 66.2194 44.424C66.5937 44.1751 66.887 43.8329 67.099 43.3973C67.3112 42.9617 67.4172 42.4516 67.4172 41.8667C67.4172 41.2942 67.3112 40.7902 67.099 40.3547C66.887 39.9191 66.5937 39.5769 66.2194 39.328C65.8451 39.0791 65.4084 38.9547 64.9093 38.9547C64.4102 38.9547 63.9735 39.0791 63.5992 39.328C63.2374 39.5769 62.9504 39.9191 62.7383 40.3547C62.5387 40.7902 62.4388 41.2942 62.4388 41.8667C62.4388 42.4516 62.5387 42.9617 62.7383 43.3973C62.9504 43.8329 63.2374 44.1751 63.5992 44.424C63.9735 44.6729 64.4102 44.7973 64.9093 44.7973Z" fill="black"/>
</svg>
