<svg width="80" height="80" viewBox="0 0 80 80" fill="none" xmlns="http://www.w3.org/2000/svg">
<path d="M10.0204 10.3462C9.89549 9.83687 10.3645 9.38209 10.8651 9.52747L25.4503 13.7557C25.5812 13.7554 25.7094 13.7926 25.8201 13.8631L54.5849 22.202C54.704 22.2044 54.8216 22.2386 54.9238 22.3002L69.5099 26.5289C70.011 26.6743 70.1678 27.3115 69.7919 27.6754L25.7763 70.3091C25.4006 70.673 24.7745 70.4908 24.6496 69.9811L17.3484 40.2182C17.3386 40.1877 17.331 40.1564 17.3254 40.1248L10.0204 10.3462ZM22.514 55.5903L25.6828 68.5075L35.2251 59.2644L22.514 55.5903ZM32.3432 45.3751L23.1044 54.3421L35.4119 57.9001L32.3432 45.3751ZM33.7145 45.2793L36.7736 57.7646L45.9871 48.8404L33.7145 45.2793ZM18.9325 40.9902L22.0049 53.5156L31.2327 44.5593L18.9325 40.9902ZM43.2381 34.7885L33.8512 43.8997L46.3605 47.5294L43.2381 34.7885ZM44.5534 34.4645L47.6758 47.2049L57.0885 38.0878L44.5534 34.4645ZM28.7142 30.5608L19.3071 39.6799L31.8393 43.316L28.7142 30.5608ZM30.0243 30.2169L33.0932 42.7416L42.332 33.7744L30.0243 30.2169ZM15.2465 25.9634L18.3696 38.696L27.7699 29.5835L15.2465 25.9634ZM54.1977 24.1958L44.9589 33.1627L57.2664 36.7207L54.1977 24.1958ZM55.518 23.8913L58.6305 36.5944L68.0073 27.5121L55.518 23.8913ZM39.6133 19.9959L30.4162 28.9113L42.6658 32.4521L39.6133 19.9959ZM40.926 19.661L43.9991 32.2008L53.2405 23.231L40.926 19.661ZM25.0792 15.7495L15.8404 24.7166L28.1479 28.2741L25.0792 15.7495ZM26.4006 15.45L29.4618 27.9433L38.6781 19.0094L26.4006 15.45ZM11.6158 11.1639L14.7384 23.8927L24.1185 14.7885L11.6158 11.1639Z" fill="white"/>
</svg>
