<svg width="80" height="80" viewBox="0 0 80 80" fill="none" xmlns="http://www.w3.org/2000/svg">
<path d="M40 10C56.5684 10 70 23.4316 70 40C70 56.5684 56.5684 70 40 70C23.4316 70 10 56.5684 10 40C10 23.4316 23.4316 10 40 10Z" fill="#3178C6"/>
<path d="M42.921 47.6669V53.5333C43.8624 54.0223 44.9757 54.3891 46.2609 54.6334C47.5462 54.8778 48.9009 55 50.3249 55C51.7127 55 53.0312 54.8655 54.2802 54.5966C55.5293 54.3279 56.6245 53.8848 57.5657 53.2675C58.507 52.6503 59.2522 51.8437 59.8014 50.8476C60.3506 49.8515 60.6252 48.6202 60.625 47.1536C60.625 46.0903 60.4681 45.1584 60.1544 44.3577C59.8452 43.5642 59.384 42.8388 58.7966 42.2221C58.2052 41.5987 57.4962 41.0395 56.6697 40.5447C55.8431 40.0497 54.9109 39.5822 53.8729 39.1422C53.1126 38.8244 52.4307 38.5158 51.8273 38.2164C51.2241 37.917 50.7112 37.6115 50.2886 37.2998C49.8662 36.988 49.5405 36.658 49.3112 36.3098C49.082 35.9615 48.9673 35.5673 48.9672 35.1273C48.9672 34.7241 49.0698 34.3605 49.2749 34.0366C49.4802 33.7127 49.7698 33.4345 50.1437 33.2022C50.518 32.97 50.9766 32.7898 51.5195 32.6615C52.0627 32.5334 52.6661 32.4692 53.3298 32.4691C53.8127 32.4691 54.3225 32.5058 54.8594 32.5792C55.3966 32.6523 55.9366 32.7653 56.4796 32.9181C57.0213 33.0707 57.5507 33.2638 58.0635 33.4956C58.5615 33.7192 59.0373 33.9893 59.4845 34.3023V28.8208C58.6036 28.4786 57.6412 28.225 56.5973 28.06C55.5535 27.895 54.3558 27.8125 53.0041 27.8125C51.6283 27.8125 50.3249 27.9622 49.094 28.2616C47.863 28.5611 46.7799 29.0286 45.8446 29.6641C44.9093 30.2995 44.1702 31.1092 43.6272 32.0931C43.0842 33.077 42.8127 34.2534 42.8125 35.6223C42.8125 37.37 43.3103 38.861 44.3059 40.0954C45.3016 41.3298 46.8131 42.3748 48.8406 43.2304C49.5892 43.5395 50.3315 43.8634 51.0672 44.2021C51.7548 44.5198 52.3491 44.8497 52.8501 45.1919C53.3509 45.5342 53.7461 45.907 54.0358 46.3103C54.3255 46.7136 54.4703 47.1719 54.4703 47.6852C54.4729 48.0542 54.3793 48.4175 54.1987 48.7394C54.0177 49.0633 53.7432 49.3444 53.3751 49.5827C53.007 49.8209 52.5484 50.0073 51.9993 50.1419C51.4501 50.2763 50.8075 50.3434 50.0716 50.3434C48.8164 50.3434 47.5734 50.1204 46.3424 49.6743C45.1115 49.2282 43.971 48.5591 42.921 47.6669ZM32.901 33.0958H40.4688V28.2812H19.375V33.0955H26.9059V54.5312H32.9008L32.901 33.0958Z" fill="white"/>
</svg>
