<svg width="80" height="80" viewBox="0 0 80 80" fill="none" xmlns="http://www.w3.org/2000/svg">
<path d="M64.8409 51.9373H15.1131C12.0229 51.9373 9.55078 49.4645 9.55078 46.3736V27.3521C9.55078 24.3087 12.0229 21.8359 15.1131 21.8359H64.8885C67.9311 21.8359 70.4508 24.3087 70.4508 27.3997V46.4211C70.4032 49.4645 67.9311 51.9373 64.8409 51.9373Z" fill="#7F54B3"/>
<path d="M16.1114 46.0407C16.1114 46.0407 17.4426 51.652 20.1524 47.8953C22.8623 44.1385 25.477 38.2419 25.477 38.2419C25.477 38.2419 25.6672 36.7677 26.4278 40.0014C27.1885 43.235 30.4688 47.61 30.4688 47.61C30.4688 47.61 33.4639 51.3667 34.7 47.4197C34.2246 42.1889 36.0311 32.6781 37.8852 28.113C38.6459 24.071 34.4147 25.2122 34.0344 26.1633C33.6541 27.1144 31.0393 33.2012 30.8491 39.5734C30.8491 39.5734 28.6147 33.4866 28.4246 31.2991C28.2344 29.0641 25.9049 28.4934 24.5737 30.6333C23.2426 32.7733 19.2016 41.0476 19.2016 41.0476L16.5868 27.5424C16.5868 27.5424 13.9721 24.071 12.4508 28.3032C12.4508 28.3032 15.1606 44.8994 16.1114 46.0407ZM50.9114 31.2991C46.8705 24.5465 40.8803 29.6823 40.8803 29.6823C40.8803 29.6823 36.3164 34.9607 38.3606 42.1413C41.6409 49.2268 46.2524 46.0882 47.4885 45.5176C48.7721 44.8994 54.1918 38.7174 50.9114 31.2991ZM47.8213 37.2433C47.8213 40.0489 45.4918 42.6644 43.5901 42.0937C42.5442 41.4756 41.8786 39.8112 41.8786 36.958C42.8295 32.3453 44.9213 31.7271 46.0147 31.8222C48.059 32.9159 47.9639 35.3411 47.8213 37.2433ZM66.077 31.2991C62.036 24.5465 56.0459 29.6823 56.0459 29.6823C56.0459 29.6823 51.4819 34.9607 53.5262 42.1413C56.8065 49.2268 61.418 46.0882 62.6541 45.5176C63.8901 44.8994 69.3573 38.7174 66.077 31.2991ZM62.9868 37.2433C62.9868 40.0489 60.6573 42.6644 58.7557 42.0937C57.7098 41.4756 57.0442 39.8112 57.0442 36.958C57.995 32.3453 60.0868 31.7271 61.1803 31.8222C63.177 32.9159 63.0819 35.3411 62.9868 37.2433Z" fill="white"/>
<path d="M38.6934 51.9373L49.295 58.1668L47.0606 51.9373L40.9754 50.2254L38.6934 51.9373Z" fill="#7F54B3"/>
</svg>
