<svg width="80" height="80" viewBox="0 0 80 80" fill="none" xmlns="http://www.w3.org/2000/svg">
<path d="M40.2419 9.59038C28.2338 9.59038 16.9654 16.6386 11.788 27.8635H26.363V29.4733C21.8818 28.9512 22.2733 31.2571 22.9259 33.6935L32.4976 57.5356L39.5023 41.1333L36.2827 33.4325C35.108 31.3876 35.108 29.0817 30.2787 29.2993L30.3657 27.82H51.7279V29.5168C49.2479 29.6473 46.2024 28.9077 47.8122 33.9981L56.4702 56.5784L61.2125 43.3957C62.7788 37.8702 61.2995 32.5623 59.4722 27.3414C58.4715 23.8608 58.9066 20.9458 63.5184 19.7711C56.5137 12.6794 48.2908 9.54688 40.3289 9.54688L40.2419 9.59038ZM69.3049 30.4305L55.4695 66.3676C59.2982 63.0611 63.2138 61.8864 67.9997 52.7498C71.1757 45.1795 70.8712 38.1313 69.3049 30.4305ZM10.3523 30.9961C9.00355 41.6119 9.13407 44.7009 12.4841 53.3589C16.8349 61.6688 20.2285 63.4091 25.0143 66.6722L10.3523 31.0396V30.9961ZM40.8075 44.4399L30.5397 69.0651C37.762 71.1099 44.2011 70.8489 50.0746 68.5865L40.8075 44.4399Z" fill="#27364B"/>
</svg>
